<?xml version="1.0" encoding="UTF-8" standalone="no"?>
<!-- Created with Inkscape (http://www.inkscape.org/) -->

<svg
   xmlns:dc="http://purl.org/dc/elements/1.1/"
   xmlns:cc="http://creativecommons.org/ns#"
   xmlns:rdf="http://www.w3.org/1999/02/22-rdf-syntax-ns#"
   xmlns:svg="http://www.w3.org/2000/svg"
   xmlns="http://www.w3.org/2000/svg"
   xmlns:sodipodi="http://sodipodi.sourceforge.net/DTD/sodipodi-0.dtd"
   xmlns:inkscape="http://www.inkscape.org/namespaces/inkscape"
   width="210mm"
   height="297mm"
   viewBox="0 0 210 297"
   version="1.1"
   id="svg80"
   inkscape:version="0.92.4 (5da689c313, 2019-01-14)"
   sodipodi:docname="terminuswhite.svg">
  <defs
     id="defs74" />
  <sodipodi:namedview
     id="base"
     pagecolor="#ffffff"
     bordercolor="#666666"
     borderopacity="1.0"
     inkscape:pageopacity="0.0"
     inkscape:pageshadow="2"
     inkscape:zoom="0.35"
     inkscape:cx="-27.142857"
     inkscape:cy="560"
     inkscape:document-units="mm"
     inkscape:current-layer="layer1"
     showgrid="false"
     inkscape:window-width="1600"
     inkscape:window-height="837"
     inkscape:window-x="1045"
     inkscape:window-y="1076"
     inkscape:window-maximized="1" />
  <metadata
     id="metadata77">
    <rdf:RDF>
      <cc:Work
         rdf:about="">
        <dc:format>image/svg+xml</dc:format>
        <dc:type
           rdf:resource="http://purl.org/dc/dcmitype/StillImage" />
        <dc:title></dc:title>
      </cc:Work>
    </rdf:RDF>
  </metadata>
  <g
     inkscape:label="Layer 1"
     inkscape:groupmode="layer"
     id="layer1">
    <path
       inkscape:tile-y0="-9.9999974"
       inkscape:tile-x0="0"
       inkscape:connector-curvature="0"
       id="use4621"
       d="m 68.587373,123.75494 c -0.730626,0 -1.322917,0.59229 -1.322917,1.32291 0,0.73063 0.592291,1.32292 1.322917,1.32292 0.730625,0 1.322916,-0.59229 1.322916,-1.32292 0,-0.73062 -0.592291,-1.32291 -1.322916,-1.32291 z m 0,0.66146 c 0.365313,0 0.661458,0.29614 0.661458,0.66145 0,0.36532 -0.296145,0.66146 -0.661458,0.66146 -0.365313,0 -0.661459,-0.29614 -0.661459,-0.66146 0,-0.36531 0.296146,-0.66145 0.661459,-0.66145 z"
       style="fill:#ffffff;fill-opacity:1;fill-rule:nonzero;stroke:none;stroke-width:0.26458332"
       inkscape:export-xdpi="441.0835"
       inkscape:export-ydpi="441.0835" />
    <path
       inkscape:tile-y0="-9.9999974"
       inkscape:tile-x0="0"
       inkscape:connector-curvature="0"
       id="use4997"
       d="m 60.930993,124.00298 c -0.730626,0 -1.322917,0.59229 -1.322917,1.32292 0,0.73063 0.592291,1.32292 1.322917,1.32292 0.730625,0 1.322916,-0.59229 1.322916,-1.32292 0,-0.73063 -0.592291,-1.32292 -1.322916,-1.32292 z m 0,0.66146 c 0.365312,0 0.661458,0.29615 0.661458,0.66146 0,0.36531 -0.296146,0.66146 -0.661458,0.66146 -0.365313,0 -0.661459,-0.29615 -0.661459,-0.66146 0,-0.36531 0.296146,-0.66146 0.661459,-0.66146 z"
       style="fill:#ffffff;fill-opacity:1;fill-rule:nonzero;stroke:none;stroke-width:0.26458332"
       inkscape:export-xdpi="441.0835"
       inkscape:export-ydpi="441.0835" />
    <path
       inkscape:tile-y0="-9.9999974"
       inkscape:tile-x0="0"
       inkscape:connector-curvature="0"
       id="use4999"
       d="m 52.512162,135.79066 c -0.730625,0 -1.322916,0.59229 -1.322916,1.32292 0,0.73062 0.592291,1.32291 1.322916,1.32291 0.730626,0 1.322917,-0.59229 1.322917,-1.32291 0,-0.73063 -0.592291,-1.32292 -1.322917,-1.32292 z m 0,0.66146 c 0.365313,0 0.661459,0.29614 0.661459,0.66146 0,0.36531 -0.296146,0.66145 -0.661459,0.66145 -0.365313,0 -0.661458,-0.29614 -0.661458,-0.66145 0,-0.36532 0.296145,-0.66146 0.661458,-0.66146 z"
       style="fill:#ffffff;fill-opacity:1;fill-rule:nonzero;stroke:none;stroke-width:0.26458332"
       inkscape:export-xdpi="441.0835"
       inkscape:export-ydpi="441.0835" />
    <path
       inkscape:tile-y0="-9.9999974"
       inkscape:tile-x0="0"
       inkscape:connector-curvature="0"
       id="use5009"
       d="m 49.606341,121.92819 c -0.730625,0 -1.322916,0.59229 -1.322916,1.32292 0,0.73062 0.592291,1.32291 1.322916,1.32291 0.730626,0 1.322917,-0.59229 1.322917,-1.32291 0,-0.73063 -0.592291,-1.32292 -1.322917,-1.32292 z m 0,0.66146 c 0.365313,0 0.661459,0.29614 0.661459,0.66146 0,0.36531 -0.296146,0.66146 -0.661459,0.66146 -0.365312,0 -0.661458,-0.29615 -0.661458,-0.66146 0,-0.36532 0.296146,-0.66146 0.661458,-0.66146 z"
       style="fill:#ffffff;fill-opacity:1;fill-rule:nonzero;stroke:none;stroke-width:0.26458332"
       inkscape:export-xdpi="441.0835"
       inkscape:export-ydpi="441.0835" />
    <path
       inkscape:tile-y0="-9.9999974"
       inkscape:tile-x0="0"
       inkscape:connector-curvature="0"
       id="use5037"
       d="m 52.356542,147.89856 c -0.730625,0 -1.322916,0.59229 -1.322916,1.32291 0,0.73063 0.592291,1.32292 1.322916,1.32292 0.730626,0 1.322917,-0.59229 1.322917,-1.32292 0,-0.73062 -0.592291,-1.32291 -1.322917,-1.32291 z m 0,0.66146 c 0.365313,0 0.661459,0.29614 0.661459,0.66145 0,0.36532 -0.296146,0.66146 -0.661459,0.66146 -0.365313,0 -0.661458,-0.29614 -0.661458,-0.66146 0,-0.36531 0.296145,-0.66145 0.661458,-0.66145 z"
       style="fill:#ffffff;fill-opacity:1;fill-rule:nonzero;stroke:none;stroke-width:0.26458332"
       inkscape:export-xdpi="441.0835"
       inkscape:export-ydpi="441.0835" />
    <path
       style="color:#000000;font-style:normal;font-variant:normal;font-weight:normal;font-stretch:normal;font-size:xx-small;line-height:normal;font-family:Sans;-inkscape-font-specification:Sans;text-indent:0;text-align:start;text-decoration:none;text-decoration-line:none;letter-spacing:normal;word-spacing:normal;text-transform:none;writing-mode:lr-tb;direction:ltr;baseline-shift:baseline;text-anchor:start;clip-rule:nonzero;display:inline;overflow:visible;visibility:visible;color-interpolation:sRGB;color-interpolation-filters:linearRGB;fill:#ffffff;fill-opacity:1;stroke:none;stroke-width:1.05833328;marker:none;enable-background:accumulate"
       d="m 67.529039,125.47473 -6.06888,6.06888 0.744141,0.74414 6.06888,-6.06888 z"
       id="path1381"
       inkscape:connector-curvature="0"
       inkscape:export-xdpi="441.0835"
       inkscape:export-ydpi="441.0835" />
    <path
       style="color:#000000;font-style:normal;font-variant:normal;font-weight:normal;font-stretch:normal;font-size:xx-small;line-height:normal;font-family:Sans;-inkscape-font-specification:Sans;text-indent:0;text-align:start;text-decoration:none;text-decoration-line:none;letter-spacing:normal;word-spacing:normal;text-transform:none;writing-mode:lr-tb;direction:ltr;baseline-shift:baseline;text-anchor:start;clip-rule:nonzero;display:inline;overflow:visible;visibility:visible;color-interpolation:sRGB;color-interpolation-filters:linearRGB;fill:#ffffff;fill-opacity:1;stroke:none;stroke-width:1.05833328;marker:none;enable-background:accumulate"
       d="m 51.827376,148.56002 h 1.058333 v -3.96875 c 0,-0.48507 0.265052,-1.034 0.677995,-1.44694 0.412943,-0.41295 0.953603,-0.66973 1.438672,-0.66973 h 4.084505 v -1.05833 h -4.084505 c -0.837848,0 -1.611837,0.40467 -2.191081,0.98392 -0.579244,0.57924 -0.983919,1.35323 -0.983919,2.19108 z"
       id="path1397"
       inkscape:connector-curvature="0"
       inkscape:export-xdpi="441.0835"
       inkscape:export-ydpi="441.0835" />
    <path
       style="color:#000000;font-style:normal;font-variant:normal;font-weight:normal;font-stretch:normal;font-size:xx-small;line-height:normal;font-family:Sans;-inkscape-font-specification:Sans;text-indent:0;text-align:start;text-decoration:none;text-decoration-line:none;letter-spacing:normal;word-spacing:normal;text-transform:none;writing-mode:lr-tb;direction:ltr;baseline-shift:baseline;text-anchor:start;clip-rule:nonzero;display:inline;overflow:visible;visibility:visible;color-interpolation:sRGB;color-interpolation-filters:linearRGB;fill:#ffffff;fill-opacity:1;stroke:none;stroke-width:1.05833328;marker:none;enable-background:accumulate"
       d="m 60.401826,126.25194 v 5.29167 h 1.058333 v -5.29167 z"
       id="path1411"
       inkscape:connector-curvature="0"
       inkscape:export-xdpi="441.0835"
       inkscape:export-ydpi="441.0835" />
    <path
       style="color:#000000;font-style:normal;font-variant:normal;font-weight:normal;font-stretch:normal;font-size:xx-small;line-height:normal;font-family:Sans;-inkscape-font-specification:Sans;text-indent:0;text-align:start;text-decoration:none;text-decoration-line:none;letter-spacing:normal;word-spacing:normal;text-transform:none;writing-mode:lr-tb;direction:ltr;baseline-shift:baseline;text-anchor:start;clip-rule:nonzero;display:inline;overflow:visible;visibility:visible;color-interpolation:sRGB;color-interpolation-filters:linearRGB;fill:#ffffff;fill-opacity:1;stroke:none;stroke-width:1.05833328;marker:none;enable-background:accumulate"
       d="m 53.570496,136.45212 v 1.05833 h 5.291667 v -1.05833 z"
       id="path1415"
       inkscape:connector-curvature="0"
       inkscape:export-xdpi="441.0835"
       inkscape:export-ydpi="441.0835" />
    <path
       style="color:#000000;font-style:normal;font-variant:normal;font-weight:normal;font-stretch:normal;font-size:xx-small;line-height:normal;font-family:Sans;-inkscape-font-specification:Sans;text-indent:0;text-align:start;text-decoration:none;text-decoration-line:none;letter-spacing:normal;word-spacing:normal;text-transform:none;writing-mode:lr-tb;direction:ltr;baseline-shift:baseline;text-anchor:start;clip-rule:nonzero;display:inline;overflow:visible;visibility:visible;color-interpolation:sRGB;color-interpolation-filters:linearRGB;fill:#ffffff;fill-opacity:1;stroke:none;stroke-width:1.05833328;marker:none;enable-background:accumulate"
       d="m 50.664675,122.58965 v 1.05833 h 3.96875 c 0.485068,0 1.033997,0.26505 1.44694,0.678 0.412943,0.41294 0.669726,0.9536 0.669726,1.43867 v 4.0845 h 1.058334 v -4.0845 c 0,-0.83785 -0.404675,-1.61184 -0.98392,-2.19108 -0.579244,-0.57925 -1.353232,-0.98392 -2.19108,-0.98392 z"
       id="path1397-2"
       inkscape:connector-curvature="0"
       inkscape:export-xdpi="441.0835"
       inkscape:export-ydpi="441.0835" />
    <text
       xml:space="preserve"
       style="font-style:normal;font-variant:normal;font-weight:bold;font-stretch:normal;font-size:22.57777786px;line-height:1.25;font-family:Tahoma;-inkscape-font-specification:'Tahoma Bold';letter-spacing:0px;word-spacing:0px;fill:#ffffff;fill-opacity:1;stroke:none;stroke-width:0.26458332;"
       x="53.26775"
       y="146.1929"
       id="text552"
       inkscape:export-xdpi="441.0835"
       inkscape:export-ydpi="441.0835"><tspan
         sodipodi:role="line"
         id="tspan550"
         x="53.26775"
         y="146.1929"
         style="stroke-width:0.26458332;fill:#ffffff;">Terminus</tspan></text>
    <text
       xml:space="preserve"
       style="font-style:normal;font-variant:normal;font-weight:normal;font-stretch:normal;font-size:11.28888893px;line-height:1.25;font-family:Tahoma;-inkscape-font-specification:Tahoma;letter-spacing:0px;word-spacing:0px;fill:#ffffff;fill-opacity:1;stroke:none;stroke-width:0.26458332;"
       x="91.446739"
       y="157.42474"
       id="text560"
       inkscape:export-xdpi="441.0835"
       inkscape:export-ydpi="441.0835"><tspan
         sodipodi:role="line"
         id="tspan558"
         x="91.446739"
         y="157.42474"
         style="stroke-width:0.26458332;fill:#ffffff;">Labs</tspan></text>
  </g>
</svg>
